<?xml version="1.0" encoding="utf-8"?>
<!-- Generator: Adobe Illustrator 16.0.4, SVG Export Plug-In . SVG Version: 6.00 Build 0)  -->
<!DOCTYPE svg PUBLIC "-//W3C//DTD SVG 1.1//EN" "http://www.w3.org/Graphics/SVG/1.1/DTD/svg11.dtd">
<svg version="1.1" id="Layer_1" xmlns="http://www.w3.org/2000/svg" xmlns:xlink="http://www.w3.org/1999/xlink" x="0px" y="0px"
	 width="38px" height="29px" viewBox="0 0 38 29" enable-background="new 0 0 38 29" xml:space="preserve">
<path fill="#1E252B" d="M29.557,2.107c-7.301-5.019-17.222,0.041-21.67,6.416c-5.222,7.486-0.64,13.701,5.686,17.382
	c-4.324-0.209-8.653-0.289-12.787,0.843c-1.376,0.378-0.791,2.516,0.59,2.138c5.757-1.577,11.946-0.681,18.017-0.426
	c0.045,0.015,0.091,0.03,0.137,0.045c0.249,0.076,0.46,0.048,0.651-0.019c4.583,0.146,9.085-0.146,13.266-2.241
	C42.856,21.528,35.734,6.352,29.557,2.107z M35.036,14.001c0.278,1.019,0.47,2.06,0.545,3.086c-0.17-0.136-0.377-0.238-0.652-0.244
	c-4.913-0.087-8.044,4.12-8.389,8.705c-0.011,0.158,0.015,0.294,0.054,0.416c-1.199,0.111-2.358,0.156-3.4,0.187
	C23.493,19.866,28.557,14.104,35.036,14.001z M34.312,11.83c-3.389,0.237-6.425,1.761-8.748,4.055
	c-0.212-3.489,1.799-8.494,5.673-8.433c0.212,0.004,0.382-0.052,0.532-0.133c0.303,0.383,0.599,0.78,0.872,1.211
	C33.238,9.469,33.821,10.601,34.312,11.83z M29.864,5.378c-4.074,0.825-6.351,5.542-6.487,9.677
	c-1.037,0.01-2.073,0.043-3.104,0.106c-0.453-2.264-0.492-4.543,0.006-6.817c0.353-1.616,1.176-3.044,2.524-4.018
	c0.801-0.577,1.913-0.78,2.842-1.231C27.152,3.549,28.579,4.31,29.864,5.378z M13.566,5.615c2.37-1.835,5.106-2.854,7.834-3.009
	c-0.191,0.125-0.378,0.261-0.551,0.423c-0.997,0.937-1.79,2.027-2.258,3.327c-0.26,0.723-0.452,1.459-0.596,2.204
	C16.781,7.169,15.3,6.268,13.566,5.615z M11.372,7.654c0.105-0.119,0.222-0.22,0.329-0.335c2.271,0.677,4.079,1.59,5.389,3.701
	c0.16,0.258,0.378,0.392,0.607,0.461c-0.018,1.297,0.107,2.598,0.346,3.88c-1.24,0.15-2.461,0.375-3.658,0.689
	c-0.001-0.095,0.009-0.188-0.02-0.293c-0.576-2.107-2.477-5.156-4.916-5.442C9.94,9.446,10.57,8.559,11.372,7.654z M8.506,12.491
	c0.083,0.011,0.158,0.036,0.255,0.026c1.711-0.174,3.093,2.457,3.468,3.83c0.036,0.133,0.101,0.232,0.166,0.329
	c-1.177,0.437-2.317,0.996-3.415,1.691C8.114,16.588,7.873,14.611,8.506,12.491z M10.168,20.238
	c4.038-2.517,8.665-2.936,13.348-2.969c0.002,0.009,0.002,0.018,0.003,0.026c0.049,0.274,0.184,0.451,0.344,0.581
	c-0.398,0.557-0.767,1.136-1.091,1.741c-0.09,0-0.175-0.015-0.272,0.009c-3.074,0.725-6.092,1.284-8.706,3.171
	c-0.167,0.121-0.275,0.269-0.354,0.424C12.156,22.338,11.041,21.338,10.168,20.238z M15.383,24.406
	c1.953-1.264,4.107-1.813,6.338-2.325c-0.435,1.314-0.688,2.69-0.744,4.093c-0.496,0-0.991,0.003-1.488-0.011
	C18.05,25.686,16.664,25.096,15.383,24.406z M28.719,25.683c0.009-0.047,0.033-0.083,0.037-0.135
	c0.257-3.402,2.526-6.553,6.173-6.489c0.277,0.006,0.483-0.091,0.653-0.222c-0.118,1.513-0.558,2.93-1.47,4.088
	C32.875,24.497,30.862,25.279,28.719,25.683z"/>
</svg>
