<?xml version="1.0" encoding="utf-8"?>
<!-- Generator: Adobe Illustrator 16.0.4, SVG Export Plug-In . SVG Version: 6.00 Build 0)  -->
<!DOCTYPE svg PUBLIC "-//W3C//DTD SVG 1.1//EN" "http://www.w3.org/Graphics/SVG/1.1/DTD/svg11.dtd">
<svg version="1.1" id="Layer_1" xmlns="http://www.w3.org/2000/svg" xmlns:xlink="http://www.w3.org/1999/xlink" x="0px" y="0px"
	 width="380px" height="180px" viewBox="0 0 380 180" enable-background="new 0 0 380 180" xml:space="preserve">
<path opacity="0.9" fill-rule="evenodd" clip-rule="evenodd" fill="#FFFFFF" d="M170.183,108.856
	c-2.617,3.599-4.594,7.513-6.073,11.706c-3.277,9.299-4.413,19.111-6.916,28.593c-0.721,2.729-1.723,5.425-2.935,7.975
	c-1.169,2.459-3.717,2.747-6.055,2.52c-2.8-0.273-4.966-3.152-5.185-6.352c-0.69-10.116-1.362-20.231-2.056-30.347
	c-0.297-4.359-1.184-8.613-2.201-12.809c-1.161,0.015-1.166,0.899-1.448,1.482c-3.973,8.18-6.234,16.983-8.985,25.587
	c-2.621,8.199-4.366,16.674-6.792,24.942c-0.889,3.031-3.057,5.208-6.5,4.755c-3.619-0.479-5.311-2.559-5.558-6.268
	c-0.769-11.495,1.112-22.811,2.049-34.196c0.528-6.438,0.865-12.912,0.392-19.394c-0.254-3.483,1.902-6.197,4.877-6.423
	c3.763-0.286,6.568,1.919,7.126,5.594c0.104,0.685,0.244,1.362,0.468,2.593c1.485-2.629,2.715-4.834,3.975-7.023
	c1.564-2.715,3.815-4.87,6.501-6.294c6.039-3.199,10.491-0.008,12.916,4.124c2.24,3.817,3.486,7.985,4.259,12.314
	c0.153,0.86,0.071,1.794,0.82,2.602c1.487-1.3,1.916-3.121,2.488-4.763c1.802-5.158,4.5-9.646,8.731-13.193
	c6.277-5.257,14.64-3.143,17.733,4.394c1.875,4.569,1.823,9.357,1.774,14.069c-0.071,6.849-0.512,13.715-1.182,20.535
	c-0.651,6.601-1.758,13.16-2.73,19.729c-0.584,3.938-2.854,5.702-6.371,5.116c-3.273-0.543-6.209-4.22-5.627-7.289
	c1.643-8.668,2.427-17.447,3.267-26.205c0.518-5.396,0.134-10.881,0.105-16.323C171.046,110.061,171.055,109.363,170.183,108.856z"
	/>
<path opacity="0.9" fill-rule="evenodd" clip-rule="evenodd" fill="#FFFFFF" d="M357.571,91.689c0.01-4.26-0.062-7.506,0.051-10.748
	c0.13-3.712,2.754-6.461,5.969-6.461c3.81-0.001,6.402,2.18,6.409,6.23c0.009,6.178-0.601,12.355-0.735,18.536
	c-0.226,10.325-1.846,20.549-2.052,30.883c-0.064,3.066-0.489,6.201-0.817,9.295c-0.309,2.907-4.404,5.671-7.467,5.201
	c-3.08-0.471-6.083-4.274-5.338-7.421c1.25-5.282,1.335-10.637,1.756-15.986c0.14-1.784-0.5-1.884-1.817-1.62
	c-3.576,0.715-7.14,1.494-10.729,2.136c-1.986,0.354-3.031,1.267-3.103,3.395c-0.189,5.66-0.592,11.318-0.73,16.98
	c-0.122,5.052-2.678,7.384-7.706,6.868c-2.352-0.241-3.736-1.504-4.288-3.663c-0.477-1.868-0.821-3.8-0.477-5.738
	c0.959-5.422,0.792-10.923,1.184-16.382c0.89-12.412,1.668-24.835,2.508-37.251c0.182-2.659,2.522-4.675,5.884-5.053
	c2.797-0.314,4.673,0.966,5.671,3.552c0.867,2.249,0.668,4.588,0.485,6.919c-0.423,5.444-0.755,10.898-1.32,16.33
	c-0.175,1.676,0.473,1.687,1.655,1.47c4.056-0.737,8.109-1.497,12.171-2.196c1.56-0.268,1.88-1.362,1.986-2.647
	C357.098,99.777,356.91,95.2,357.571,91.689z"/>
<path opacity="0.9" fill-rule="evenodd" clip-rule="evenodd" fill="#FFFFFF" d="M70.022,144.689
	c0.246-4.906,0.566-9.904,0.731-14.906c0.221-6.688,0.256-13.379,0.511-20.063c0.101-2.634,2.678-4.772,5.347-4.8
	c3.442-0.033,6.328,2.224,6.839,5.319c0.566,3.435-0.037,6.867-0.008,10.301c0.079,9.465-0.119,18.932-1.293,28.33
	c-0.546,4.364-1.433,8.713-2.557,12.964c-1.333,5.049-7.22,6.231-10.977,2.252c-4.893-5.183-9.172-10.879-13.383-16.619
	c-0.884-1.207-1.589-2.568-3.05-3.609c-0.395,4.474-1.001,8.758-1.074,13.052c-0.051,3.04-0.153,6.054-0.569,9.053
	c-0.531,3.832-2.47,5.572-6.274,5.775c-2.954,0.158-5.728-2.12-6.358-5.487c-0.859-4.595-0.517-9.282-0.808-13.923
	c-0.644-10.267,0.744-20.367,2.605-30.425c0.48-2.585,4.127-6.249,6.621-6.559c2.996-0.376,6.215,1.058,6.878,3.86
	c2.387,10.112,10.311,16.689,15.507,24.995C68.918,144.534,69.19,144.87,70.022,144.689z"/>
<path opacity="0.9" fill-rule="evenodd" clip-rule="evenodd" fill="#FFFFFF" d="M237.153,22.038
	c0.316-3.544,1.417-5.832,4.424-7.204c7.021-3.207,14.463-4.808,21.938-6.416c6.405-1.378,12.762-2.992,19.138-4.506
	c3.205-0.76,6.303,1.15,7.24,4.479c0.869,3.087-0.966,6.778-4.012,7.575c-4.595,1.202-9.218,2.335-13.885,3.199
	c-1.769,0.329-2.396,1.101-2.634,2.672c-0.921,6.094-1.505,12.272-2.927,18.249c-1.308,5.486-1.379,11.171-3.178,16.571
	c-0.709,2.133-0.248,4.553-1.978,6.516c-2.015,2.288-4.337,2.521-6.872,1.524c-2.824-1.108-4.424-3.91-3.968-6.503
	c1.384-7.858,2.425-15.773,4.185-23.569c0.724-3.206,0.882-6.536,1.417-9.791c0.278-1.697-0.489-1.723-1.678-1.289
	c-2.95,1.076-5.966,2.015-8.82,3.311C241.028,28.905,237.089,26.466,237.153,22.038z"/>
<path opacity="0.9" fill-rule="evenodd" clip-rule="evenodd" fill="#FFFFFF" d="M308.352,148.215
	c-10.254,1.043-20.258-8.516-21.02-18.614c-0.716-9.523,1.961-18.2,6.613-26.295c4.027-7.013,9.91-12.455,16.143-17.488
	c2.281-1.843,5.6-1.377,7.382,0.792c2.492,3.026,2.448,6.931-0.432,9.198c-3.679,2.901-7.029,6.053-9.994,9.705
	c-5.106,6.298-7.255,13.422-6.61,21.415c0.167,2.095,0.266,4.207,1.156,6.239c1.693,3.866,4.011,4.813,7.674,2.851
	c0.357-0.191,0.715-0.383,1.076-0.565c4.104-2.056,7.442-1.219,8.974,2.249c1.765,3.987,0.357,7.413-3.938,9.018
	C313.046,147.59,310.776,149.087,308.352,148.215z"/>
<path opacity="0.9" fill-rule="evenodd" clip-rule="evenodd" fill="#FFFFFF" d="M26.751,121.536
	c-0.38,9.709-0.643,19.425-1.182,29.125c-0.335,6.024-1.034,12.031-1.669,18.037c-0.514,4.869-5.252,8.571-9.177,7.307
	c-3.885-1.253-5.87-6.265-4.029-9.949c1.728-3.456,1.271-7.335,1.544-10.975c0.762-10.116,1.917-20.245,1.562-30.405
	c-0.105-3.005,0.29-5.701,2.032-7.905c1.824-2.305,4.58-3.059,7.458-2.012C26.457,115.914,26.827,118.627,26.751,121.536z"/>
<path opacity="0.9" fill-rule="evenodd" clip-rule="evenodd" fill="#FFFFFF" d="M233.337,18.956
	c-0.497,3.794-0.597,7.805-1.636,11.557c-0.981,3.537-1.164,7.159-1.832,10.706c-1.417,7.521-2.586,15.119-3.113,22.789
	c-0.325,4.766-2.161,6.972-5.722,7.272c-3.84,0.323-7.523-3.099-7.102-6.955c0.826-7.515,1.73-15.02,3.079-22.471
	c1.472-8.112,2.557-16.292,3.958-24.418c0.654-3.794,3.229-5.836,6.366-5.485C230.791,12.337,233.279,15.198,233.337,18.956z"/>
<path opacity="0.9" fill-rule="evenodd" clip-rule="evenodd" fill="#FFFFFF" d="M139.364,36.85
	c-2.853-9.938-10.725-14.639-19.993-17.424c-8.038-2.416-16.291-3.266-24.67-3.036c-1.219,0.052-2.44,0.07-3.655,0.161
	c-4.882,0.365-6.22,2.314-7.162,6.744c-0.667,3.135,1.547,5.777,5.516,6.783c1.304,0.33,1.533,0.664,1.284,1.968
	c-0.929,4.872-1.168,9.856-1.68,14.768c-0.487,4.675-0.92,9.437-1.435,14.103c-0.687,6.235-0.577,12.589-2.823,18.737
	c-1.806,4.942,4.358,11.579,9.782,11.565c2.676-0.008,4.509-1.173,5.309-3.668c0.387-1.21,0.983-1.86,2.162-2.252
	c8.025-2.67,15.25-6.856,21.849-12.069c4.847-3.828,8.787-8.5,12.073-13.787C140.333,52.344,141.63,44.749,139.364,36.85z
	 M119.817,59.675c-5.171,4.638-11.005,8.463-17.566,11.068c-1.918,0.762-2.279,0.334-2.098-1.486
	c0.704-7.105,1.49-14.206,2.021-21.326c0.393-5.262,0.9-10.5,1.638-15.723c0.244-1.724,0.847-2.442,2.728-2.212
	c4.561,0.561,9.053,1.327,13.186,3.444c4.443,2.278,7.248,5.764,7.677,9.882C127.47,50.728,124.249,55.701,119.817,59.675z"/>
<path opacity="0.9" fill-rule="evenodd" clip-rule="evenodd" fill="#FFFFFF" d="M282.543,106.096
	c3.489-9.417-1.404-18.167-11.035-19.185c-7.525-0.796-14.907-0.049-22.18,2.038c-2.029,0.583-3.104,1.819-3.367,3.816
	c-0.222,1.705-0.353,3.396-0.121,5.146c0.841,6.327,1.158,12.696,0.9,19.071c-0.104,2.571,0.008,5.086-1.561,7.585
	c-1.391,2.219-2.103,5.123,0.251,7.644c0.934,1.002,0.293,2.32,0.143,3.507c-0.486,3.806-1.119,7.603-1.396,11.424
	c-0.242,3.388,2.783,6.475,6.211,6.752c3.113,0.252,4.617-1.314,5.639-5.001c0.578-2.09,0.763-4.176,0.979-6.277
	c0.183-1.773,0.735-2.3,2.493-1.406c3.544,1.796,7.305,3.077,11.164,4.007c2.504,0.601,5.098,0.828,7.295-0.848
	c2.305-1.753,3.116-4.256,2.557-7.064c-0.559-2.795-2.873-3.505-5.264-3.867c-4.976-0.751-9.524-2.559-14.289-5.311
	c3.603-1.498,5.811-4.094,8.518-6.041C275.244,117.937,279.99,112.989,282.543,106.096z M259.089,114.855
	c-0.22-5.171-0.405-9.793-0.614-14.415c-0.058-1.242,0.752-1.598,1.723-1.662c2.123-0.141,4.26-0.349,6.377-0.246
	c3.514,0.166,4.76,2.178,3.109,5.339C267.348,108.344,263.719,111.679,259.089,114.855z"/>
<path opacity="0.9" fill-rule="evenodd" clip-rule="evenodd" fill="#FFFFFF" d="M236.59,144.023
	c-2.568-9.19-4.167-18.58-6.043-27.919c-1.533-7.651-2.708-15.395-5.259-22.812c-1.53-4.458-5.499-5.759-9.457-3.211
	c-1.899,1.221-2.521,3.31-3.708,5.038c-5.528,8.056-7.806,17.483-11.5,26.312c-1.597,3.813-1.553,8.335-5.188,11.347
	c-1.313,1.089-1.956,3.105-1.15,5.064c0.423,1.027,0.142,1.981-0.251,2.948c-0.99,2.443-1.941,4.902-2.929,7.347
	c-0.758,1.875-0.99,3.727,0.133,5.555c1.433,2.339,3.438,3.652,6.259,3.635c3.113-0.019,4.017-2.643,5.027-4.671
	c1.386-2.788,2.135-5.889,3.174-8.852c0.885-2.521,2.018-4.394,5.323-4.357c2.999,0.032,6.076-0.567,8.991-1.363
	c2.209-0.603,2.653,0.247,2.985,2.039c0.462,2.494,0.944,5.001,1.704,7.412c0.958,3.047,3,4.798,6.205,4.293
	C235.168,151.776,237.748,148.165,236.59,144.023z M218.907,125.751c-2.218,0.582-4.419,1.369-6.993,1.064
	c1.354-4.801,2.993-9.252,5.279-13.922c1.726,3.876,1.251,7.77,2.635,11.227C220.147,124.919,219.688,125.547,218.907,125.751z"/>
<path opacity="0.9" fill-rule="evenodd" clip-rule="evenodd" fill="#FFFFFF" d="M188.388,42.848
	c-1.002-10.722-4.079-17.921-12.319-22.14c-3.367-1.725-7.158-1.906-10.639-3.296c-1.844-0.736-4.147-0.039-5.768,2.22
	c-3.812,5.312-6.967,10.895-9.718,16.845c-3.281,7.095-5.128,14.314-5.291,22.104c-0.187,8.923,6.088,15.04,12.599,16.422
	c14.639,3.108,23.14-5.782,27.922-16.418C187.62,53.148,189.228,47.076,188.388,42.848z M174.723,45.864
	c-1.164,5.102-3.308,9.782-6.787,13.775c-0.329,0.377-0.577,0.903-0.988,1.119c-1.904,0.996-3.669,3.33-5.953,2.149
	c-2.499-1.29-2.565-4.151-2.683-6.716c-0.167-5.459,1.886-10.321,4.01-15.153c0.854-1.94,1.704-3.908,2.823-5.697
	c0.783-1.252,0.99-3.47,3.176-3.138c2.223,0.337,4.293,1.142,5.522,3.333C175.712,38.863,175.52,42.381,174.723,45.864z"/>
</svg>
