<?xml version="1.0" encoding="utf-8"?>
<!-- Generator: Adobe Illustrator 16.0.4, SVG Export Plug-In . SVG Version: 6.00 Build 0)  -->
<!DOCTYPE svg PUBLIC "-//W3C//DTD SVG 1.1//EN" "http://www.w3.org/Graphics/SVG/1.1/DTD/svg11.dtd">
<svg version="1.1" id="Layer_1" xmlns="http://www.w3.org/2000/svg" xmlns:xlink="http://www.w3.org/1999/xlink" x="0px" y="0px"
	 width="200px" height="200px" viewBox="0 0 200 200" enable-background="new 0 0 200 200" xml:space="preserve">
<g>
	<circle cx="99.999" cy="16.524" r="16.524"/>
	<path d="M119.62,37.187v-0.048h-1.344H81.724h-1.607v0.068c-10.823,0.829-19.423,9.937-19.423,20.962v5.132v46.192
		c0,3.924,3.21,7.135,7.135,7.135s7.136-3.211,7.136-7.135V63.302h3.874v127.31c0,5.164,4.225,9.389,9.389,9.389
		c5.163,0,9.389-4.225,9.389-9.389v-73.982h4.506v73.982c0,5.164,4.226,9.389,9.389,9.389c5.164,0,9.389-4.225,9.389-9.389V63.302
		h4.138v46.192c0,3.924,3.211,7.135,7.136,7.135c3.924,0,7.135-3.211,7.135-7.135V63.302v-5.132
		C139.307,47.055,130.566,37.886,119.62,37.187z"/>
</g>
</svg>
