<?xml version="1.0" encoding="utf-8"?>
<!-- Generator: Adobe Illustrator 16.0.0, SVG Export Plug-In . SVG Version: 6.00 Build 0)  -->
<!DOCTYPE svg PUBLIC "-//W3C//DTD SVG 1.1//EN" "http://www.w3.org/Graphics/SVG/1.1/DTD/svg11.dtd">
<svg version="1.1" id="Layer_1" xmlns="http://www.w3.org/2000/svg" xmlns:xlink="http://www.w3.org/1999/xlink" x="0px" y="0px"
	 width="130px" height="25px" viewBox="0 0 130 25" enable-background="new 0 0 130 25" xml:space="preserve">
<g>
	<polygon fill="#D4D7DD" points="13.756,15.202 8.479,1.622 1.999,1.622 1.999,23.344 6.621,23.344 6.621,7.681 12.746,23.344 
		14.766,23.344 20.891,7.681 20.891,23.344 25.545,23.344 25.545,1.622 19.032,1.622 	"/>
	<path fill="#D4D7DD" d="M39.19,1.622l-8.371,21.722h5.242l1.368-3.68h9.314l1.37,3.68h5.243L44.983,1.622H39.19z M38.702,15.596
		l3.386-9.35l3.389,9.35H38.702z"/>
	<path fill="#D4D7DD" d="M93.378,5.367c2.218,0,4.169,1.4,5.081,3.159l3.975-1.954c-1.529-2.735-4.299-5.307-9.056-5.307
		c-6.545,0-11.595,4.525-11.595,11.235c0,6.677,5.05,11.234,11.595,11.234c4.757,0,7.524-2.639,9.056-5.34l-3.975-1.922
		c-0.912,1.76-2.863,3.159-5.081,3.159c-3.974,0-6.838-3.028-6.838-7.133C86.54,8.395,89.404,5.367,93.378,5.367z"/>
	<polygon fill="#D4D7DD" points="123.34,1.622 123.34,10.154 113.079,10.154 113.079,1.622 108.457,1.622 108.457,23.344 
		113.079,23.344 113.079,14.193 123.34,14.193 123.34,23.344 128,23.344 128,1.622 	"/>
	<path fill="#D4D7DD" d="M71.521,15.041c2.285-0.617,4.599-2.693,4.599-6.401c0-4.039-2.8-7.002-7.327-7.002H58.629v21.721h4.628
		v-7.717h3.634c1.035,4.252,4.351,7.24,8.67,8.094l1.881-3.887C74.58,19.586,72.307,17.732,71.521,15.041z M63.257,5.708h4.886
		c1.823,0,3.224,1.108,3.224,2.898c0,1.858-1.399,2.963-3.224,2.963h-4.886V5.708z"/>
</g>
</svg>
