<?xml version="1.0" encoding="utf-8"?>
<!-- Generator: Adobe Illustrator 16.0.4, SVG Export Plug-In . SVG Version: 6.00 Build 0)  -->
<!DOCTYPE svg PUBLIC "-//W3C//DTD SVG 1.1//EN" "http://www.w3.org/Graphics/SVG/1.1/DTD/svg11.dtd">
<svg version="1.1" id="Layer_1" xmlns="http://www.w3.org/2000/svg" xmlns:xlink="http://www.w3.org/1999/xlink" x="0px" y="0px"
	 width="24px" height="24px" viewBox="0 0 24 24" enable-background="new 0 0 24 24" xml:space="preserve">
<path opacity="0.8" fill="#FFFFFF" d="M23.991,4.857c-0.001-0.488-0.059-0.992-0.185-1.462c-0.557-2.067-2.374-3.382-4.653-3.39
	c-2.388-0.008-4.775-0.002-7.163-0.002c-2.347,0-4.693-0.005-7.041,0.005C4.54,0.009,4.122,0.03,3.723,0.113
	C1.472,0.582,0.01,2.439,0.006,4.839c-0.007,4.775-0.004,9.552,0.003,14.328c0,0.367,0.026,0.744,0.102,1.104
	c0.477,2.271,2.332,3.727,4.76,3.729c4.748,0.006,9.497,0.004,14.245-0.002c0.396-0.002,0.8-0.029,1.186-0.111
	c2.249-0.479,3.693-2.332,3.697-4.742C24.004,14.382,24.005,9.619,23.991,4.857z M17.202,2.798c1.325,0,2.649,0,3.997,0
	c0,1.334,0,2.658,0,4.028c-1.347,0-2.649,0-3.997,0C17.202,5.491,17.202,4.157,17.202,2.798z M12.044,7.789
	c2.339,0.02,4.189,1.927,4.168,4.294c-0.021,2.277-1.95,4.152-4.251,4.129s-4.189-1.93-4.17-4.211
	C7.811,9.64,9.7,7.769,12.044,7.789z M21.65,19.091c-0.002,1.639-0.914,2.557-2.543,2.557c-4.736,0.002-9.472,0.002-14.208,0
	c-1.633,0-2.547-0.914-2.548-2.549c-0.003-3.035-0.001-6.068-0.001-9.102c0-0.135,0-0.271,0-0.434c1.19,0,2.352,0,3.533,0
	c-0.866,3.45-0.134,5.958,2.236,7.713c2.09,1.547,5.009,1.75,7.169,0.377c3.042-1.934,3.847-4.711,2.842-8.106
	c1.153,0,2.303,0,3.5,0c0.007,0.154,0.019,0.299,0.019,0.443C21.651,13.024,21.652,16.058,21.65,19.091z"/>
</svg>
