<?xml version="1.0" encoding="utf-8"?>
<!-- Generator: Adobe Illustrator 16.0.4, SVG Export Plug-In . SVG Version: 6.00 Build 0)  -->
<!DOCTYPE svg PUBLIC "-//W3C//DTD SVG 1.1//EN" "http://www.w3.org/Graphics/SVG/1.1/DTD/svg11.dtd">
<svg version="1.1" id="Layer_1" xmlns="http://www.w3.org/2000/svg" xmlns:xlink="http://www.w3.org/1999/xlink" x="0px" y="0px"
	 width="239px" height="72px" viewBox="322.721 99.658 239 72" enable-background="new 322.721 99.658 239 72" xml:space="preserve"
	>
<g>
	<path fill="#333333" d="M410.442,149.198c-3.317,0.41-6.845-0.904-9.952-1.903c-1.503-0.483-10.329-3.821-10.146-4.978
		c0.51-3.191,5.788-6.267,8.133-7.938c3.044-2.171,6.256-4.09,9.188-6.413c4.08-3.238-1.677-8.91-5.709-5.709
		c-3.601,2.854-9.74,6.029-14.198,10.051c-0.177-3.932-0.337-7.866-0.491-11.802c0.008-2.67-0.098-5.33-0.334-7.958
		c-0.458-5.103-8.274-5.271-8.075,0c0.09,2.344,0.2,4.688,0.295,7.033c0.039,10.161-1.714,20.352-4.789,30.006
		c-2.996,9.399-5.478,0.016-6.319-4.733c-0.793-4.497-1.082-8.882-2.901-13.108c-1.225-2.849-5.614-2.418-6.971,0
		c-2.881,5.131-4.447,11.011-6.442,16.518c-2.347,6.479-8.477,20.728-12.44,7.485c-4.116-13.76-2.318-29.21-2.549-43.382
		c-0.085-5.244-7.76-5.162-8.075,0c-1.012,16.767-3.521,33.331-5.846,49.95c-0.709,5.092,7.071,7.286,7.786,2.147
		c0.273-1.935,0.546-3.863,0.819-5.798c1.178,3.27,2.766,6.292,4.897,8.957c10.001,12.496,18.972-6.773,24.353-20.522
		c1.939,9.646,5.22,20.396,15.345,14.964c2.163-1.162,3.727-3.52,4.909-6.248c0.084,1.359,0.137,2.721,0.227,4.079
		c0.312,4.763,6.229,5.229,7.933,1.075c1.072-2.315,1.935-4.71,2.575-7.178c0.137-0.441,0.177-0.852,0.179-1.246
		c0.988,0.431,1.94,0.82,2.766,1.148c4.707,1.869,10.65,4.219,15.834,3.577C415.541,156.636,415.602,148.556,410.442,149.198z"/>
	<path fill="#333333" d="M437.073,142.71c-3.485,4.795-9.999,6.713-14.015,2.642c7.693-2.604,14.953-8.605,15.723-16.446
		c0.418-4.284-1.708-8.137-5.793-9.52c-4.074-1.38-9.021,1.33-12.175,3.643c-5.714,4.18-8.7,10.535-8.242,17.027
		c-1.693,2.045-1.131,5.74,1.671,6.539c0.3,0.657,0.626,1.31,1.002,1.953c6.831,11.645,22.105,7.441,28.803-1.758
		C447.113,142.569,440.106,138.547,437.073,142.71z M424.97,129.958c1.487-1.299,3.351-2.229,5.248-2.729
		c1.06-0.278,0.626,1.38,0.281,2.726c-0.88,3.436-5.664,6.271-9.987,7.715C420.919,134.736,422.651,131.979,424.97,129.958z"/>
	<path fill="#333333" d="M517.093,118.493c-4.831,1.046-9.772,1.259-14.725,1.425c0.915-5.062,2.014-10.104,2.744-15.183
		c0.721-4.999-6.57-7.344-7.785-2.149c-1.393,5.945-2.738,11.901-4.258,17.805c-1.658,0.142-3.312,0.312-4.952,0.584
		c-5.125,0.846-2.943,8.626,2.15,7.785c0.157-0.026,0.315-0.037,0.476-0.063c-0.62,2.056-1.243,4.111-1.953,6.146
		c-1.535,4.384-6.682,15.681-9.541,5.067c-1.425-5.283-1.498-10.327-4.026-15.308c-1.23-2.432-4.511-2.469-6.34-0.82
		c-5.31,4.792-6.958,12.606-12.617,16.922c-4.079,3.112-0.065,10.13,4.074,6.971c4.595-3.501,6.86-8.438,9.872-12.927
		c2.82,10.119,7.413,26.705,18.221,16.507c1.938-1.83,3.58-3.975,5.021-6.313c0.224,0.951,0.483,1.897,0.788,2.839
		c5.704,17.479,22.284,3.613,26.548-6.482c1.997-4.736-4.955-8.857-6.977-4.074c-1.004,2.382-6.834,15.056-11.3,9.227
		c-2.825-3.69-1.908-10.475-1.666-14.782c0.071-1.288,0.192-2.565,0.334-3.843c6.045-0.227,12.114-0.261,18.06-1.546
		C524.329,125.179,522.171,117.396,517.093,118.493z"/>
	<path fill="#333333" d="M475.979,117.52c3.972-1.63,6.687-5.241,6.976-9.541c0.115-1.672-1.304-3.58-2.962-3.896
		c-1.028-0.194-2.053-0.273-3.073-0.295c-2.357-1.756-5.173-2.35-8.259-0.788c-3.28,1.666-4.983,6.351-3.571,9.72
		C466.846,116.908,471.632,119.302,475.979,117.52z"/>
	<path fill="#333333" d="M354.28,121.56c2.842,0.291,5.835-1.097,8.271-2.379c2.86-1.504,5.641-4.61,5.241-8.069
		c-0.396-3.428-2.681-5.804-5.846-6.986c-3.304-1.23-6.862-0.584-9.956,0.898c-1.057,0.505-1.683,1.538-1.888,2.66
		C346.608,112.3,346.598,120.769,354.28,121.56z M356.052,113.246c0.031-0.068,0.063-0.136,0.095-0.199
		c0.202,0.011,0.402,0,0.597-0.021c-0.039,0.017-0.031,0.011-0.079,0.032C356.465,113.13,356.257,113.183,356.052,113.246z
		 M359.183,111.785c0.021-0.021,0.042-0.042,0.062-0.063c0.011,0.003,0.017,0.006,0.026,0.008c-0.019,0.014-0.013,0.009-0.031,0.024
		C359.222,111.763,359.201,111.769,359.183,111.785z"/>
	<path fill="#333333" d="M554.776,104.146c-5.664-2.581-12.576-2.533-18.139,0.295c-6.96,3.535-6.881,11.449-3.559,17.505
		c2.502,4.568,9.479,0.494,6.971-4.073c-2.455-4.479-1.062-6.43,3.604-7.376c2.143-0.431,4.471-0.115,6.548,0.489
		c1.708,0.496,3.153,1.647,3.416,2.434c1.588,4.731-9.47,8.753-11.97,12.496c-2.634,3.942-2.396,8.629-1.95,13.152
		c0.494,4.979,5.12,5.683,8.459,2.723c2.226-1.974,1.316-4.665-0.595-5.982c-0.079-1.304-0.168-2.57,0.103-3.874
		c0.387-1.855,1.982-2.875,3.478-3.812c3.796-2.376,7.317-4.618,9.32-8.805C563.369,113.236,560.838,106.907,554.776,104.146z"/>
	<path fill="#333333" d="M543.666,148.377c-0.441-0.836-1.209-1.529-2.381-1.868c-5.373-1.551-10.148,0.875-12.193,5.984
		c-1.616,4.032-0.053,9.407,3.824,11.518c5.236,2.85,13.143-0.662,14.84-6.219c0.889-2.912-0.365-6.124-2.452-8.18
		C544.802,149.119,544.247,148.724,543.666,148.377z M539.955,155.719c0,0.002,0,0.002-0.003,0.002
		c0.006-0.026,0.008-0.042,0.016-0.076C539.96,155.679,539.96,155.69,539.955,155.719z M536.543,156.453
		c0.029,0.058,0.042,0.068,0.063,0.11c0,0,0,0.002,0,0.005C536.588,156.526,536.564,156.489,536.543,156.453z M539.645,155.958
		c-0.331,0.215-0.693,0.381-1.057,0.538c-0.115,0.034-0.69,0.255-0.696,0.261c-0.191,0.062-0.396,0.095-0.594,0.137
		c-0.065,0-0.323,0.026-0.491,0.031c-0.071-0.115-0.137-0.236-0.2-0.357c0,0,0,0,0-0.003c0.426,0.799,0.098-0.522,0.005-0.446
		c0.008-0.229,0.021-0.46,0.024-0.6c0.023-0.073,0.044-0.145,0.07-0.224c0.374,0.011,0.763-0.011,1.183-0.115
		c0.926-0.231,1.394-0.071,1.774,0.236c0.034,0.048,0.082,0.103,0.14,0.174c-0.005,0.021,0.011,0.078,0.037,0.137
		C539.745,155.795,539.608,155.948,539.645,155.958z M539.879,155.795c0.003,0.005,0.008,0.01,0.013,0.013
		c-0.031,0.039-0.058,0.071-0.1,0.14C539.837,155.879,539.86,155.832,539.879,155.795z"/>
</g>
</svg>
