<?xml version="1.0" encoding="utf-8"?>
<!-- Generator: Adobe Illustrator 16.0.4, SVG Export Plug-In . SVG Version: 6.00 Build 0)  -->
<!DOCTYPE svg PUBLIC "-//W3C//DTD SVG 1.1//EN" "http://www.w3.org/Graphics/SVG/1.1/DTD/svg11.dtd">
<svg version="1.1" id="Layer_1" xmlns="http://www.w3.org/2000/svg" xmlns:xlink="http://www.w3.org/1999/xlink" x="0px" y="0px"
	 width="164px" height="36px" viewBox="38 7 164 36" enable-background="new 38 7 164 36" xml:space="preserve">
<g>
	<path fill="#313A44" d="M53.584,21.164c-0.859,4.131-1.421,8.316-2.241,12.452c-1.772-3.511-2.625-7.58-4.502-11.017
		c-0.935-1.714-3.087-1.013-3.718,0.485c-2.168,5.154-1.949,10.739-3.073,16.132c-0.534,2.561,3.387,3.65,3.922,1.083
		c0.736-3.53,0.902-7.149,1.535-10.673c1.38,3.682,2.586,7.406,5.349,10.416c1.039,1.134,3.019,0.539,3.399-0.896
		c1.469-5.557,2.084-11.281,3.253-16.9C58.039,19.686,54.118,18.597,53.584,21.164z"/>
	<path fill="#313A44" d="M60.81,22.856c0.274,4.92-0.695,9.719-1.153,14.597c-0.245,2.612,3.826,2.589,4.068,0
		c0.457-4.878,1.427-9.676,1.152-14.597C64.733,20.248,60.665,20.234,60.81,22.856z"/>
	<path fill="#313A44" d="M75.837,18.975c-4.463,1.755-7.75,6.359-8.291,11.106c-0.627,5.517,3.67,7.806,8.604,7.028
		c2.586-0.408,1.484-4.327-1.082-3.922c-7.101,1.117-1.696-8.896,1.85-10.29C79.331,21.948,78.281,18.013,75.837,18.975z"/>
	<path fill="#313A44" d="M88.988,25.89c-1.986,0.349-3.939,0.854-5.912,1.263c0.25-1.409,0.56-2.811,0.84-4.215
		c1.696-0.069,3.354-0.269,5.001-0.807c2.482-0.812,1.42-4.741-1.081-3.923c-1.863,0.609-3.666,0.688-5.605,0.695
		c-0.839,0.002-1.807,0.611-1.961,1.494c-0.767,4.386-2.138,8.871-1.658,13.365c0.601,5.648,5.249,6.224,9.638,3.912
		c2.322-1.223,0.266-4.732-2.052-3.514c-0.808,0.427-2.625,1.573-3.236,0.542c-0.525-0.886-0.448-2.241-0.371-3.339
		c0.061-0.008,0.12-0.003,0.182-0.016c2.451-0.43,4.848-1.107,7.298-1.536C92.65,29.359,91.553,25.439,88.988,25.89z"/>
	<path fill="#313A44" d="M102.986,31.652c-1.847,0.321-3.644,0.884-5.481,1.215c0.198-4.376,1.342-8.674,1.143-13.083
		c-0.118-2.612-4.188-2.624-4.068,0c0.234,5.171-1.385,10.191-1.151,15.365c0.047,1.064,0.889,2.09,2.034,2.034
		c2.951-0.147,5.713-1.104,8.606-1.608C106.648,35.123,105.55,31.202,102.986,31.652z"/>
	<path fill="#313A44" d="M113.702,19.498c-1.578,1.837-3.161,3.638-4.97,5.21c-0.149-1.622-0.029-3.28-0.007-4.925
		c0.033-2.625-4.035-2.621-4.068,0c-0.038,3.025-0.328,6.129,0.841,8.992c0.464,1.136,1.788,2.015,2.988,1.215
		c0.941-0.627,1.818-1.309,2.659-2.026c-0.644,2.462-1.125,4.951-1.02,7.568c0.104,2.613,4.172,2.623,4.068,0
		c-0.197-4.911,1.901-9.343,2.909-14.056C117.495,19.636,115.123,17.843,113.702,19.498z"/>
	<path fill="#313A44" d="M130.372,13.525c-2.461-0.234-2.578,3.367-0.417,3.986c-0.065,0.217-0.1,0.459-0.081,0.736
		c0.282,3.893-0.716,7.677-1.15,11.521c-0.088,0.772,0.211,1.306,0.68,1.617c-0.246,0.095-0.487,0.184-0.725,0.266
		c-2.465,0.848-1.405,4.778,1.082,3.922c5.42-1.867,11.668-6.006,12.339-12.256C142.831,16.514,135.903,14.049,130.372,13.525z
		 M137.872,23.818c-0.659,2.53-2.734,4.499-5.078,5.919c0.438-3.836,1.427-7.584,1.148-11.473
		C136.529,19.066,138.693,20.664,137.872,23.818z"/>
	<path fill="#313A44" d="M153.766,16.492c-0.181-0.131-0.358-0.213-0.535-0.275c-0.313-0.492-0.858-0.824-1.642-0.772
		c-6.764,0.446-12.459,13.901-3.487,15.295c3.436,0.535,6.458-2.044,7.854-4.987C157.568,22.35,156.843,18.717,153.766,16.492z
		 M148.959,26.765c-3.362,0.092-0.04-6.485,2.317-7.188c0.12,0.152,0.26,0.299,0.438,0.428
		C154.278,21.858,151.711,26.69,148.959,26.765z"/>
	<path fill="#313A44" d="M168.709,12.728c-0.59,1.823-0.443,4.01-0.586,5.903c-0.119,1.61-0.283,3.25-0.623,4.846
		c-1.473-2.523-2.422-5.362-3.488-8.076c-0.726-1.846-3.258-2.017-3.922,0c-1.416,4.301-1.324,8.965-3.639,12.958
		c-1.316,2.274,2.199,4.322,3.515,2.053c1.428-2.463,2.043-5.108,2.589-7.788c1.079,2.402,2.364,4.688,4.203,6.664
		c0.83,0.894,2.659,0.773,3.194-0.41c1.062-2.348,1.646-4.75,1.945-7.309c0.22-1.863,0.096-4.053,0.362-6.023
		c0.089-0.174,0.163-0.367,0.201-0.599c0.06-0.362,0.106-0.725,0.159-1.087c0.005-0.016,0.008-0.033,0.013-0.05
		c-0.003,0-0.003-0.001-0.006-0.001c0.025-0.181,0.058-0.359,0.079-0.541C172.986,10.892,169.381,10.651,168.709,12.728z"/>
	<path fill="#313A44" d="M185.187,17.593c2.623,0,2.623-4.068,0-4.068c-2.048,0-4.096,0-6.145,0c-1.026,0-2.143,0.929-2.034,2.034
		c0.509,5.178-2.826,9.778-2.69,14.98c0.035,1.308,1.275,2.331,2.576,1.962c2.666-0.761,5.324-1.482,8.065-1.92
		c2.585-0.414,1.483-4.335-1.082-3.924c-1.783,0.285-3.53,0.697-5.271,1.154c0.18-1.013,0.442-2.009,0.735-2.998
		c0.483,0.097,1.007,0.024,1.494-0.2c1.056-0.488,2.319-0.434,3.426-0.179c2.552,0.589,3.636-3.334,1.08-3.924
		c-1.604-0.37-3.186-0.4-4.728-0.037c0.233-0.946,0.409-1.903,0.479-2.88C182.459,17.593,183.823,17.593,185.187,17.593z"/>
	<path fill="#313A44" d="M195.919,10.181c-0.481,4.529-2.18,8.819-3,13.288c-0.472,2.562,3.449,3.66,3.922,1.081
		c0.889-4.84,2.625-9.455,3.146-14.368C200.264,7.573,196.192,7.6,195.919,10.181z"/>
	<path fill="#313A44" d="M193.028,28.132c-0.023-0.003-0.045-0.009-0.07-0.011c-1.051-0.109-1.931,0.905-2.017,1.882
		c-0.091,0.201-0.171,0.408-0.208,0.62c-0.122,0.693-0.071,1.285,0.264,1.919c0.438,0.829,1.593,1.415,2.502,1.11
		c0.537-0.18,1.137-0.336,1.592-0.686c0.649-0.497,1.092-1.105,1.546-1.783c0.473-0.713,0.34-1.906-0.319-2.467
		C195.378,27.916,194.18,27.811,193.028,28.132z M192.474,32.13c-0.027-0.015-0.055-0.03-0.08-0.045
		c0.18,0.049,0.365,0.084,0.564,0.105C192.797,32.17,192.636,32.151,192.474,32.13z"/>
</g>
</svg>
