<?xml version="1.0" encoding="utf-8"?>
<!-- Generator: Adobe Illustrator 16.0.4, SVG Export Plug-In . SVG Version: 6.00 Build 0)  -->
<!DOCTYPE svg PUBLIC "-//W3C//DTD SVG 1.1//EN" "http://www.w3.org/Graphics/SVG/1.1/DTD/svg11.dtd">
<svg version="1.1" id="Layer_1" xmlns="http://www.w3.org/2000/svg" xmlns:xlink="http://www.w3.org/1999/xlink" x="0px" y="0px"
	 width="313px" height="66.557px" viewBox="0 0 313 66.557" enable-background="new 0 0 313 66.557" xml:space="preserve">
<g>
	<path fill="#333333" d="M219.085,13.542c-6.797,5.052-9.861,13.401-15.246,19.507c-0.848-6.064-0.809-12.209-0.996-18.367
		c-0.152-5.043-7.967-4.738-7.814,0.299c0.271,9.024,0.266,17.912,2.596,26.689c0.646,2.434,3.789,3.46,5.828,2.115
		c6.424-4.23,9.457-11.204,13.721-17.153c-0.514,3.826-1.414,7.641-2.197,11.191c-0.501,2.285-6.348,22.966-9.458,20.479
		c-3.92-3.132-9.261,2.584-5.312,5.736c18.021,14.396,26.459-37.271,24.887-47.353C224.68,14.037,221.72,11.582,219.085,13.542z"/>
	<path fill="#333333" d="M306.078,27.268c-1.188,1.112-10.635,12.556-12.604,8.045c-2.075-4.761-0.663-11.805-1.081-16.913
		c-0.181-2.15-2.163-3.769-4.14-3.761c-1.435-0.862-3.356-0.816-4.81,0.622c-4.788,4.741-8.335,11.904-13.909,15.875
		c0.457-3.907,1.668-7.549,2.73-11.639c0.679-2.612-1.497-4.712-3.957-4.803c-7.301-0.269-14.575,0.278-21.863-0.451
		c-0.602-0.061-1.15,0.008-1.666,0.13c-1.316-2.247-5.215-3.11-7.047-0.143c-4.098,6.644-13.132,26.668-3.095,31.836
		c4.296,2.216,11.769-2.334,13.784-6.04c2.886-5.318,3.77-11.784,2.574-17.765c4.131,0.146,8.26,0.112,12.401,0.147
		c-1.31,4.948-2.351,9.707-1.706,15.049c0.312,2.604,2.491,4.246,5.089,3.579c8.38-2.153,12.802-8.89,17.817-15.221
		c-0.102,6.734,0.13,14.691,5.4,17.585c9.621,5.278,15.631-5.021,21.812-10.821C315.501,29.125,309.738,23.835,306.078,27.268z
		 M243.08,32.682c-0.938,2.686-2.559,4.585-4.854,5.7c-0.014-1.602,0.162-3.182,0.523-4.739c0.74-4.148,2.108-8.413,4.008-12.294
		C244.1,24.93,243.694,29.058,243.08,32.682z"/>
	<path fill="#333333" d="M135.896,17.42c-1.108-1.948-3.598-2.168-5.397-1.196c-4.385,2.367-7.436,5.75-9.867,9.62
		c-0.06-2.42-0.223-4.843-0.606-7.271c-0.674-4.252-6.437-5.213-7.715-0.745c-2.254,7.874-4.139,16.354-9.085,22.973
		c-2.874-4.34-1.973-12.204-3.16-16.781c-0.7-2.702-3.88-3.26-5.901-1.997c-0.069-0.07-0.124-0.137-0.195-0.21
		c-0.915-0.925-2.611-1.351-3.841-0.858c-4.757,1.904-9.854,7.169-12.559,13.021c-3.381,5.325-7.196,10.316-12.583,13.611
		c-1.933-8.828,4.187-24.822-8.774-25.354c-2.723-0.111-5.118,1.608-7.209,4.327c0.804-5.26,1.67-10.516,2.635-15.768
		c0.909-4.94-6.521-6.73-7.613-1.789c-0.893,4.036-1.748,8.466-2.779,12.961c-0.361,0.014-0.735,0.062-1.139,0.192
		c-4.796,1.563-9.521,3.31-14.211,5.149c0.592-4.559,1.192-9.161,0.955-13.743c-0.261-5.032-8.076-4.739-7.813,0.3
		c0.184,3.509-1.072,10.049-2.043,17.149C11.879,33.27,6.822,35.665,1.887,38.32c-4.441,2.392-0.219,8.979,4.201,6.599
		c3.276-1.765,6.607-3.4,9.971-4.966c-0.595,9.604,0.605,18.388,7.782,20.39c5.794,1.612,10.535-2.136,14.384-8.227
		c-0.119,1.553-0.284,3.1-0.377,4.656c-0.282,4.625,6.524,4.748,7.714,0.744c1.307-4.405,2.718-8.766,4.254-13.094
		c1.166-3.282,2.581-6.423,4.104-9.546c0.995-2.034,2.425-7.139,3.231-2.301c1.244,7.465-2.323,15.867,2.62,22.471
		c0.974,1.298,2.816,2.355,4.485,1.625c5.112-2.249,9.205-5.434,12.735-9.199c0.521,0.963,1.154,1.891,2.022,2.726
		c7.514,7.204,12.895,0.497,16.381-7.822c1.046,2.892,2.869,5.452,6.352,7.457c1.558,0.897,3.493,0.429,4.71-0.793
		c2.49-2.492,4.414-5.337,6.03-8.359c-0.024,1.07-0.037,2.145-0.031,3.216c0.019,3.826,5.704,5.224,7.357,1.694
		c3.226-6.885,5.532-14.89,11.169-20.044c2.188,6.732,0.886,13.886-0.408,20.908c-0.648,3.508,4.176,6.93,6.675,3.553
		c0.906-1.227,1.815-2.454,2.723-3.681c1.466-1.981,0.813-4.286-0.577-5.626C140.39,32.683,140.153,24.897,135.896,17.42z
		 M26.152,52.392c-0.654,0.532-0.772-9.7-0.729-16.523c4.438-1.812,8.937-3.469,13.479-5.021
		C36.324,39.263,32.583,47.173,26.152,52.392z M87.787,41.496c-1.046,3.379-2.452,3.261-4.215-0.347
		c0.351-1.6,0.917-3.11,1.704-4.538c0.792-1.53,1.726-2.972,2.794-4.324c0.421-0.485,0.842-0.971,1.265-1.455
		c0.715-0.357,1.186-0.689,1.467-1.003c0.169,0.095,0.345,0.175,0.521,0.245C90.464,33.974,89.447,37.826,87.787,41.496z"/>
	<path fill="#333333" d="M168.57,41.125c0.713-0.72-1.306-0.909-2.429-1.473c-1.729-0.859-3.336-1.975-4.927-3.063
		c-2.131-1.461-4.148-3.083-6.163-4.71c4.393-4.376,10.8-6.678,14.669-11.729c3.042-3.971-2.667-9.32-5.736-5.312
		c-2.485,3.248-5.817,5.479-9.109,7.775c0.328-6.315,0.512-12.638,0.34-18.979c-0.139-5.044-7.951-4.739-7.814,0.3
		c0.235,8.688-0.184,17.342-0.751,25.992c-0.18,0.239-0.386,0.444-0.557,0.694c-0.753,1.105-0.553,2.869,0.235,4.022
		c-0.291,4.092-0.59,8.186-0.856,12.28c-0.216,3.343,4.758,5.092,6.776,2.507c1.289-1.654,1.795-2.605,2.256-4.677
		c0.314-1.413-0.102-2.556-0.861-3.367c0.011-0.134,0.019-0.266,0.026-0.401c6.606,5.344,15.177,10.941,20.636,5.452
		C177.871,42.854,172.119,37.555,168.57,41.125z"/>
</g>
</svg>
